# Blender 4.4.0
# www.blender.org
mtllib small_cube.mtl
o Cube
v 0.250000 0.150000 -0.250000
v 0.250000 -0.350000 -0.250000
v 0.250000 0.150000 0.250000
v 0.250000 -0.350000 0.250000
v -0.250000 0.150000 -0.250000
v -0.250000 -0.350000 -0.250000
v -0.250000 0.150000 0.250000
v -0.250000 -0.350000 0.250000
vn -0.0000 1.0000 -0.0000
vn -0.0000 -0.0000 1.0000
vn -1.0000 -0.0000 -0.0000
vn -0.0000 -1.0000 -0.0000
vn 1.0000 -0.0000 -0.0000
vn -0.0000 -0.0000 -1.0000
vt 1.000000 1.000000
vt 0.000000 1.000000
vt 0.000000 0.000000
vt 1.000000 0.000000
s 0
usemtl Material
f 1/1/1 5/2/1 7/3/1 3/4/1
f 4/4/2 3/1/2 7/2/2 8/3/2
f 8/3/3 7/2/3 5/1/3 6/4/3
f 6/2/4 2/1/4 4/4/4 8/3/4
f 2/4/5 1/1/5 3/2/5 4/3/5
f 6/3/6 5/2/6 1/1/6 2/4/6
o Cube.001
v -0.100000 -0.547741 0.100000
v -0.100000 -0.347741 0.100000
v -0.100000 -0.547741 -0.100000
v -0.100000 -0.347741 -0.100000
v 0.100000 -0.547741 0.100000
v 0.100000 -0.347741 0.100000
v 0.100000 -0.547741 -0.100000
v 0.100000 -0.347741 -0.100000
v -0.100000 -0.747741 -0.100000
v -0.100000 -0.747741 0.100000
v 0.100000 -0.747741 -0.100000
v 0.100000 -0.747741 0.100000
v -0.100000 -0.547741 0.600000
v 0.100000 -0.547741 0.600000
v -0.100000 -0.747741 0.600000
v 0.100000 -0.747741 0.600000
vn -1.0000 -0.0000 -0.0000
vn -0.0000 -0.0000 -1.0000
vn 1.0000 -0.0000 -0.0000
vn -0.0000 -0.0000 1.0000
vn -0.0000 1.0000 -0.0000
vn -0.0000 -1.0000 -0.0000
vt 0.021484 0.027344
s 0
f 9/5/7 10/5/7 12/5/7 11/5/7
f 11/5/8 12/5/8 16/5/8 15/5/8
f 15/5/9 16/5/9 14/5/9 13/5/9
f 13/5/10 14/5/10 10/5/10 9/5/10
f 9/5/7 18/5/7 23/5/7 21/5/7
f 16/5/11 12/5/11 10/5/11 14/5/11
f 17/5/12 19/5/12 20/5/12 18/5/12
f 11/5/8 15/5/8 19/5/8 17/5/8
f 9/5/7 11/5/7 17/5/7 18/5/7
f 15/5/9 13/5/9 20/5/9 19/5/9
f 22/5/10 21/5/10 23/5/10 24/5/10
f 13/5/11 9/5/11 21/5/11 22/5/11
f 20/5/9 13/5/9 22/5/9 24/5/9
f 18/5/12 20/5/12 24/5/12 23/5/12
